<svg width="237" height="217" viewBox="0 0 237 217" fill="none" xmlns="http://www.w3.org/2000/svg">
<g filter="url(#filter0_f_4_2075)">
<path d="M37.6076 178.52C17.4036 158.912 6.57275 132.781 7.42022 105.886C8.26774 78.9895 20.7288 53.4348 42.1469 34.8642" stroke="#00F6FF" stroke-width="5"/>
</g>
<g filter="url(#filter1_f_4_2075)">
<path d="M62.1174 21.088C78.9468 11.9934 98.0979 7.112 117.644 6.94745C137.189 6.78289 156.42 11.3411 173.4 20.1511C190.379 28.9606 204.498 41.7037 214.357 57.0783C224.215 72.4507 229.473 89.9197 229.623 107.731" stroke="#009482" stroke-width="5"/>
</g>
<g filter="url(#filter2_f_4_2075)">
<path d="M226.073 134.036C221.805 149.116 213.808 163.118 202.683 174.952C191.557 186.787 177.601 196.134 161.885 202.257C146.168 208.381 129.124 211.11 112.073 210.229C95.0228 209.348 78.437 204.881 63.5999 197.183" stroke="#7CED91" stroke-width="5"/>
</g>
<path d="M218.587 107.641C219.002 156.849 174.9 197.553 119.508 198.02C64.1159 198.486 19.3355 158.53 18.9212 109.322C18.5069 60.1149 62.6083 19.4107 118.001 18.9443C173.393 18.478 218.173 58.4339 218.587 107.641Z" stroke="#00F7FF" stroke-width="5"/>
<path d="M218.587 107.641C219.002 156.849 174.9 197.553 119.508 198.02C64.1159 198.486 19.3355 158.53 18.9212 109.322C18.5069 60.1149 62.6083 19.4107 118.001 18.9443C173.393 18.478 218.173 58.4339 218.587 107.641Z" stroke="#DBDBDB" stroke-width="5"/>
<path d="M57.3195 165.993C41.9863 152.434 32.7175 134.366 31.1565 115.175C29.5956 95.9869 35.8387 76.8929 48.7918 61.449C61.7516 45.9972 80.5516 35.2517 101.721 31.2804C122.89 27.3089 144.919 30.3968 163.69 39.9438" stroke="#7CED91" stroke-width="5"/>
<path d="M180.636 53.5876C195.855 67.275 204.971 85.4208 206.371 104.624C207.77 123.825 201.366 142.865 188.284 158.2C175.194 173.542 156.304 184.129 135.103 187.922C113.901 191.715 91.8985 188.441 73.209 178.737" stroke="#00F6FF" stroke-width="5"/>
<mask id="path-8-inside-1_4_2075" fill="white">
<path d="M159.759 47.0337C142.896 38.4573 123.132 35.6923 104.147 39.2539C85.1622 42.8154 68.2521 52.4607 56.5671 66.3926C44.8822 80.3245 39.2194 97.5928 40.6338 114.98C42.0481 132.368 50.4432 148.689 64.2549 160.902L69.8624 155.773C57.4318 144.781 49.8763 130.092 48.6033 114.443C47.3304 98.7944 52.4269 83.2529 62.9434 70.7142C73.4598 58.1755 88.6789 49.4948 105.765 46.2893C122.852 43.0839 140.64 45.5724 155.816 53.2912L159.759 47.0337Z"/>
</mask>
<path d="M159.759 47.0337C142.896 38.4573 123.132 35.6923 104.147 39.2539C85.1622 42.8154 68.2521 52.4607 56.5671 66.3926C44.8822 80.3245 39.2194 97.5928 40.6338 114.98C42.0481 132.368 50.4432 148.689 64.2549 160.902L69.8624 155.773C57.4318 144.781 49.8763 130.092 48.6033 114.443C47.3304 98.7944 52.4269 83.2529 62.9434 70.7142C73.4598 58.1755 88.6789 49.4948 105.765 46.2893C122.852 43.0839 140.64 45.5724 155.816 53.2912L159.759 47.0337Z" stroke="#7CED91" stroke-width="10" mask="url(#path-8-inside-1_4_2075)"/>
<mask id="path-9-inside-2_4_2075" fill="white">
<path d="M77.1157 171.299C93.8788 180.067 113.611 183.057 132.635 179.713C151.659 176.368 168.678 166.916 180.521 153.119C192.365 139.321 198.224 122.119 197.008 104.716C195.793 87.3136 187.584 70.898 173.913 58.5278L168.247 63.5927C180.552 74.726 187.939 89.5 189.033 105.162C190.127 120.825 184.854 136.307 174.195 148.725C163.536 161.143 148.219 169.649 131.097 172.659C113.975 175.669 96.2166 172.978 81.1298 165.086L77.1157 171.299Z"/>
</mask>
<path d="M77.1157 171.299C93.8788 180.067 113.611 183.057 132.635 179.713C151.659 176.368 168.678 166.916 180.521 153.119C192.365 139.321 198.224 122.119 197.008 104.716C195.793 87.3136 187.584 70.898 173.913 58.5278L168.247 63.5927C180.552 74.726 187.939 89.5 189.033 105.162C190.127 120.825 184.854 136.307 174.195 148.725C163.536 161.143 148.219 169.649 131.097 172.659C113.975 175.669 96.2166 172.978 81.1298 165.086L77.1157 171.299Z" stroke="#00F6FF" stroke-width="10" mask="url(#path-9-inside-2_4_2075)"/>
<mask id="path-10-inside-3_4_2075" fill="white">
<path d="M155.022 56.7557C140.708 49.4753 123.93 47.1281 107.814 50.1515C91.6983 53.1749 77.3434 61.3626 67.4242 73.1893C57.505 85.0159 52.6978 99.6749 53.8985 114.435C55.0991 129.195 62.2257 143.05 73.9503 153.418L78.7104 149.063C68.1582 139.732 61.7444 127.263 60.6638 113.979C59.5832 100.695 63.9096 87.5019 72.8369 76.8579C81.7642 66.2139 94.6836 58.8449 109.188 56.1238C123.692 53.4028 138.793 55.5153 151.675 62.0677L155.022 56.7557Z"/>
</mask>
<path d="M155.022 56.7557C140.708 49.4753 123.93 47.1281 107.814 50.1515C91.6983 53.1749 77.3434 61.3626 67.4242 73.1893C57.505 85.0159 52.6978 99.6749 53.8985 114.435C55.0991 129.195 62.2257 143.05 73.9503 153.418L78.7104 149.063C68.1582 139.732 61.7444 127.263 60.6638 113.979C59.5832 100.695 63.9096 87.5019 72.8369 76.8579C81.7642 66.2139 94.6836 58.8449 109.188 56.1238C123.692 53.4028 138.793 55.5153 151.675 62.0677L155.022 56.7557Z" stroke="#7CED91" stroke-width="10" mask="url(#path-10-inside-3_4_2075)"/>
<mask id="path-11-inside-4_4_2075" fill="white">
<path d="M84.0925 162.51C98.4065 169.79 115.185 172.137 131.301 169.114C147.417 166.09 161.771 157.903 171.691 146.076C181.61 134.249 186.417 119.59 185.216 104.83C184.016 90.0702 176.889 76.2156 165.165 65.8478L160.404 70.202C170.957 79.5331 177.371 92.0022 178.451 105.286C179.532 118.57 175.205 131.763 166.278 142.407C157.351 153.051 144.431 160.42 129.927 163.141C115.422 165.863 100.322 163.75 87.4396 157.198L84.0925 162.51Z"/>
</mask>
<path d="M84.0925 162.51C98.4065 169.79 115.185 172.137 131.301 169.114C147.417 166.09 161.771 157.903 171.691 146.076C181.61 134.249 186.417 119.59 185.216 104.83C184.016 90.0702 176.889 76.2156 165.165 65.8478L160.404 70.202C170.957 79.5331 177.371 92.0022 178.451 105.286C179.532 118.57 175.205 131.763 166.278 142.407C157.351 153.051 144.431 160.42 129.927 163.141C115.422 165.863 100.322 163.75 87.4396 157.198L84.0925 162.51Z" stroke="#00F6FF" stroke-width="10" mask="url(#path-11-inside-4_4_2075)"/>
<path d="M80.1042 160.613L119.047 112.941L84.8042 117.641L157.319 61.2405L121.062 102.869L153.962 100.184L80.1042 160.613Z" fill="url(#paint0_angular_4_2075)"/>
<defs>
<filter id="filter0_f_4_2075" x="0.873962" y="28.9753" width="46.9107" height="155.339" filterUnits="userSpaceOnUse" color-interpolation-filters="sRGB">
<feFlood flood-opacity="0" result="BackgroundImageFix"/>
<feBlend mode="normal" in="SourceGraphic" in2="BackgroundImageFix" result="shape"/>
<feGaussianBlur stdDeviation="2" result="effect1_foregroundBlur_4_2075"/>
</filter>
<filter id="filter1_f_4_2075" x="56.9288" y="0.443176" width="179.194" height="111.309" filterUnits="userSpaceOnUse" color-interpolation-filters="sRGB">
<feFlood flood-opacity="0" result="BackgroundImageFix"/>
<feBlend mode="normal" in="SourceGraphic" in2="BackgroundImageFix" result="shape"/>
<feGaussianBlur stdDeviation="2" result="effect1_foregroundBlur_4_2075"/>
</filter>
<filter id="filter2_f_4_2075" x="58.4485" y="129.355" width="174.029" height="87.5353" filterUnits="userSpaceOnUse" color-interpolation-filters="sRGB">
<feFlood flood-opacity="0" result="BackgroundImageFix"/>
<feBlend mode="normal" in="SourceGraphic" in2="BackgroundImageFix" result="shape"/>
<feGaussianBlur stdDeviation="2" result="effect1_foregroundBlur_4_2075"/>
</filter>
<radialGradient id="paint0_angular_4_2075" cx="0" cy="0" r="1" gradientUnits="userSpaceOnUse" gradientTransform="translate(118.712 110.927) rotate(90) scale(49.6862 38.6075)">
<stop offset="0.73147" stop-color="#009482"/>
<stop offset="1" stop-color="#002E28"/>
</radialGradient>
</defs>
</svg>
